<svg xmlns="http://www.w3.org/2000/svg" viewBox="0 0 184 82" role="img" aria-label="Professional top-down patrol car">
  <defs>
    <linearGradient id="patrolBody" x1="0" x2="1"><stop offset="0" stop-color="#e8eef5"/><stop offset=".5" stop-color="#ffffff"/><stop offset="1" stop-color="#d5e0ea"/></linearGradient>
    <linearGradient id="patrolGlass" x1="0" x2="1"><stop offset="0" stop-color="#4e667b"/><stop offset="1" stop-color="#24384b"/></linearGradient>
  </defs>
  <path d="M21 24C32 11 54 6 92 6s60 5 71 18c6 8 9 22 9 33 0 11-8 18-19 18H31c-11 0-19-7-19-18 0-11 3-25 9-33Z" fill="url(#patrolBody)" stroke="#071b33" stroke-width="3.8"/>
  <path d="M21 40h142" stroke="#0d5db8" stroke-width="11" opacity=".95"/>
  <path d="M49 18c11-6 26-9 43-9s32 3 43 9l-12 20H61L49 18Z" fill="url(#patrolGlass)" opacity=".72" stroke="#071b33" stroke-width="2.6"/>
  <path d="M58 48h68l14 20H44l14-20Z" fill="url(#patrolGlass)" opacity=".55" stroke="#071b33" stroke-width="2.6"/>
  <rect x="76" y="35" width="16" height="8" rx="2" fill="#c9252d" stroke="#071b33" stroke-width="1"/>
  <rect x="92" y="35" width="16" height="8" rx="2" fill="#1f6fd1" stroke="#071b33" stroke-width="1"/>
  <text x="92" y="60" text-anchor="middle" font-family="Arial, sans-serif" font-size="12" font-weight="800" fill="#071b33">POLICE</text>
  <path d="M30 28h18M136 28h18M29 64h19M136 64h19" stroke="#071b33" stroke-width="8" stroke-linecap="round"/>
  <path d="M18 42h16M150 42h16" stroke="#fff" stroke-width="4" stroke-linecap="round"/>
</svg>
