<svg xmlns="http://www.w3.org/2000/svg" viewBox="0 0 188 86" role="img" aria-label="Professional top-down SUV">
  <defs>
    <linearGradient id="suvBody" x1="0" x2="1"><stop offset="0" stop-color="#d4dee9"/><stop offset=".5" stop-color="#f7fafc"/><stop offset="1" stop-color="#c1cedb"/></linearGradient>
    <linearGradient id="suvGlass" x1="0" x2="1"><stop offset="0" stop-color="#536f86"/><stop offset="1" stop-color="#26394c"/></linearGradient>
  </defs>
  <path d="M21 20C35 9 57 5 94 5s59 4 73 15c7 6 10 23 10 43 0 11-8 18-19 18H30c-11 0-19-7-19-18 0-20 3-37 10-43Z" fill="url(#suvBody)" stroke="#0a2744" stroke-width="3.8"/>
  <path d="M50 19c13-7 27-10 44-10s31 3 44 10l-13 22H63L50 19Z" fill="url(#suvGlass)" opacity=".74" stroke="#0a2744" stroke-width="2.6"/>
  <path d="M55 49h78l16 22H39l16-22Z" fill="url(#suvGlass)" opacity=".54" stroke="#0a2744" stroke-width="2.6"/>
  <path d="M33 30h122M33 58h122" stroke="#91a2b4" stroke-width="2" opacity=".7"/>
  <path d="M29 23h20M139 23h20M28 67h21M139 67h21" stroke="#0a2744" stroke-width="9" stroke-linecap="round"/>
  <path d="M18 42h17M153 42h17" stroke="#fff" stroke-width="4" stroke-linecap="round"/>
  <path d="M72 11v64M116 11v64" stroke="#0a2744" stroke-width="1.5" opacity=".24"/>
  <rect x="39" y="15" width="110" height="56" rx="22" fill="none" stroke="#fff" stroke-width="2" opacity=".45"/>
</svg>
