<svg xmlns="http://www.w3.org/2000/svg" viewBox="0 0 228 94" role="img" aria-label="Professional top-down commercial truck">
  <defs>
    <linearGradient id="truckCab" x1="0" x2="1"><stop offset="0" stop-color="#e5ecf3"/><stop offset="1" stop-color="#f8fafc"/></linearGradient>
    <linearGradient id="trailer" x1="0" x2="1"><stop offset="0" stop-color="#d3dde8"/><stop offset="1" stop-color="#eef3f8"/></linearGradient>
  </defs>
  <rect x="12" y="20" width="70" height="54" rx="10" fill="url(#truckCab)" stroke="#0a2744" stroke-width="4"/>
  <rect x="80" y="12" width="134" height="70" rx="5" fill="url(#trailer)" stroke="#0a2744" stroke-width="4"/>
  <path d="M24 29h43v18H24z" fill="#4d667d" opacity=".68" stroke="#0a2744" stroke-width="2.5"/>
  <path d="M91 24h112M91 38h112M91 52h112M91 66h112" stroke="#91a1b2" stroke-width="2.2"/>
  <path d="M21 26h14M21 68h14M64 26h14M64 68h14M194 22h18M194 72h18" stroke="#0a2744" stroke-width="9" stroke-linecap="round"/>
  <path d="M82 27h-9v40h9" fill="none" stroke="#0a2744" stroke-width="3"/>
  <path d="M15 47h16M211 47h10" stroke="#fff" stroke-width="4" stroke-linecap="round"/>
</svg>
